# xmcd
#
# Track frame offsets: 
#        150
#        25269
#        34780
#        40616
#        43920
#        50212
#        53691
#        63676
#        67506
#        73025
#        76486
#        80450
#        86821
#        90264
#        96709
#        101353
#        110849
#        114890
#        124428
#        131443
#        135708
#        143879
#        149914
#        155550
#        166057
#
# Disc length: 2467 seconds
#
# Revision: 0
# Processed by: cddbd v1.5.2PL0 Copyright (c) Steve Scherf et al.
# Submitted via: ExactAudioCopy v1.0b3
#
DISCID=6909a119
DTITLE=Richard Koechli - Searching For The Blues
DYEAR=2015
DGENRE=Blues
TTITLE0=Dem Blues auf den Fersen
TTITLE1=Goalies Intro
TTITLE2=Regis Kuchen
TTITLE3=Goalie Blues 1
TTITLE4=Panini
TTITLE5=Uf der Rückfahrt
TTITLE6=Der Barde Taliesin, für Regi
TTITLE7=Goalie Blues 2
TTITLE8=Verliebt
TTITLE9=Chlapf
TTITLE10=Chont ned guet
TTITLE11=Am Meer
TTITLE12=Ueli wird gesund
TTITLE13=Chrommi Gschichte
TTITLE14=Blumen für Regi
TTITLE15=Chalti Duschi
TTITLE16=Ich nems ned gierig
TTITLE17=Harvest
TTITLE18=Verzaubert
TTITLE19=Drohend
TTITLE20=In Gefahr
TTITLE21=Erwachen
TTITLE22=Spielen
TTITLE23=Der Traum
TTITLE24=Lucerne Is A Blues Town
EXTD=
EXTT0=
EXTT1=
EXTT2=
EXTT3=
EXTT4=
EXTT5=
EXTT6=
EXTT7=
EXTT8=
EXTT9=
EXTT10=
EXTT11=
EXTT12=
EXTT13=
EXTT14=
EXTT15=
EXTT16=
EXTT17=
EXTT18=
EXTT19=
EXTT20=
EXTT21=
EXTT22=
EXTT23=
EXTT24=
PLAYORDER=
